# xmcd
#
# Track frame offsets:
#	150
#	7119
#	20752
#	32887
#	49406
#	64463
#	75377
#	92615
#	119117
#	167766
#	188120
#	220432
#	248937
#
# Disc length: 3571 seconds
#
# Revision: 1
# Processed by: cddbd v1.5.1PL0 Copyright (c) Steve Scherf et al.
# Submitted via: EasyCDDAExtractor 6.0.0.1
#
DISCID=bf0df10d
DTITLE=Eric Clapton - Rush
DYEAR=1900
DGENRE=Blues
TTITLE0=New Recruit
TTITLE1=Tracks And Lines
TTITLE2=Realization
TTITLE3=Kristen And Jim
TTITLE4=Preludin Fugue
TTITLE5=Cold Turkey
TTITLE6=Will Gaines
TTITLE7=Help Me Up
TTITLE8=Dont Know Which Way To Go
TTITLE9=Tears In Heaven
TTITLE10=Heart Beats Like  A Hammer feat BB KIng
TTITLE11=I'm Coming Feat BB King
TTITLE12=Come Rain Or Come Shine feat BB King
EXTD=
EXTT0=
EXTT1=
EXTT2=
EXTT3=
EXTT4=
EXTT5=
EXTT6=
EXTT7=
EXTT8=
EXTT9=
EXTT10=
EXTT11=
EXTT12=
PLAYORDER=
